<mxfile host="app.diagrams.net" modified="2021-03-23T12:31:47.934Z" agent="5.0 (Windows NT 10.0; Win64; x64) AppleWebKit/537.36 (KHTML, like Gecko) Chrome/89.0.4389.90 Safari/537.36" etag="Y7EiF48JiL6EJAHcsTs9" version="14.4.5" type="github">
  <diagram name="Page-1" id="ff44883e-f642-bcb2-894b-16b3d25a3f0b">
    <mxGraphModel dx="1303" dy="743" grid="1" gridSize="10" guides="1" tooltips="1" connect="1" arrows="1" fold="1" page="1" pageScale="1.5" pageWidth="1169" pageHeight="826" background="#F4F1DE" math="0" shadow="0">
      <root>
        <mxCell id="0" style=";html=1;" />
        <mxCell id="1" style=";html=1;" parent="0" />
        <mxCell id="f0bcc99304e6f5a-9" style="edgeStyle=none;curved=1;html=1;startSize=10;endArrow=classic;endFill=1;endSize=10;strokeColor=#E07A5F;strokeWidth=2;fontSize=12;fontColor=#393C56;labelBackgroundColor=#F4F1DE;" parent="1" edge="1">
          <mxGeometry relative="1" as="geometry">
            <mxPoint x="250" y="610" as="sourcePoint" />
            <mxPoint x="410" y="610" as="targetPoint" />
          </mxGeometry>
        </mxCell>
        <mxCell id="f0bcc99304e6f5a-10" style="edgeStyle=none;curved=1;html=1;startSize=10;endFill=1;endSize=10;strokeWidth=2;fontSize=12;strokeColor=#E07A5F;fontColor=#393C56;labelBackgroundColor=#F4F1DE;" parent="1" edge="1">
          <mxGeometry relative="1" as="geometry">
            <mxPoint x="510.00000000000045" y="610" as="sourcePoint" />
            <mxPoint x="719.9999999999745" y="610" as="targetPoint" />
          </mxGeometry>
        </mxCell>
        <mxCell id="f0bcc99304e6f5a-11" style="edgeStyle=none;curved=1;html=1;startSize=10;endFill=1;endSize=10;strokeWidth=2;fontSize=12;strokeColor=#E07A5F;fontColor=#393C56;labelBackgroundColor=#F4F1DE;" parent="1" edge="1">
          <mxGeometry relative="1" as="geometry">
            <mxPoint x="501.17781660636183" y="584.9411941294666" as="sourcePoint" />
            <mxPoint x="648.8221833936382" y="465.0588058705341" as="targetPoint" />
          </mxGeometry>
        </mxCell>
        <mxCell id="f0bcc99304e6f5a-29" value="A(150)" style="text;html=1;strokeColor=none;fillColor=none;align=center;verticalAlign=middle;whiteSpace=wrap;rounded=0;shadow=1;labelBackgroundColor=none;fontSize=20;fontColor=#393C56;" parent="1" vertex="1">
          <mxGeometry x="300" y="620" width="40" height="20" as="geometry" />
        </mxCell>
        <mxCell id="eLOIpNVpVNITT14pjEON-5" style="edgeStyle=none;curved=1;html=1;startSize=10;endFill=1;endSize=10;strokeWidth=2;fontSize=12;strokeColor=#E07A5F;fontColor=#393C56;labelBackgroundColor=#F4F1DE;" edge="1" parent="1">
          <mxGeometry relative="1" as="geometry">
            <mxPoint x="502.195374357133" y="633.7372675344964" as="sourcePoint" />
            <mxPoint x="667.804625642867" y="756.2627324655041" as="targetPoint" />
          </mxGeometry>
        </mxCell>
        <mxCell id="eLOIpNVpVNITT14pjEON-6" value="B(450)" style="text;html=1;strokeColor=none;fillColor=none;align=center;verticalAlign=middle;whiteSpace=wrap;rounded=0;shadow=1;labelBackgroundColor=none;fontSize=20;fontColor=#393C56;" vertex="1" parent="1">
          <mxGeometry x="590" y="530" width="40" height="20" as="geometry" />
        </mxCell>
        <mxCell id="eLOIpNVpVNITT14pjEON-7" value="J(200)" style="text;html=1;strokeColor=none;fillColor=none;align=center;verticalAlign=middle;whiteSpace=wrap;rounded=0;shadow=1;labelBackgroundColor=none;fontSize=20;fontColor=#393C56;" vertex="1" parent="1">
          <mxGeometry x="530" y="710" width="40" height="20" as="geometry" />
        </mxCell>
        <mxCell id="eLOIpNVpVNITT14pjEON-8" value="D(50)" style="text;html=1;strokeColor=none;fillColor=none;align=center;verticalAlign=middle;whiteSpace=wrap;rounded=0;shadow=1;labelBackgroundColor=none;fontSize=20;fontColor=#393C56;" vertex="1" parent="1">
          <mxGeometry x="620" y="619.5" width="40" height="20" as="geometry" />
        </mxCell>
        <mxCell id="eLOIpNVpVNITT14pjEON-11" style="edgeStyle=none;curved=1;html=1;startSize=10;endFill=1;endSize=10;strokeWidth=2;fontSize=12;strokeColor=#E07A5F;fontColor=#393C56;labelBackgroundColor=#F4F1DE;" edge="1" parent="1">
          <mxGeometry relative="1" as="geometry">
            <mxPoint x="720.0000000000005" y="440" as="sourcePoint" />
            <mxPoint x="899.9999999999995" y="440" as="targetPoint" />
          </mxGeometry>
        </mxCell>
        <mxCell id="eLOIpNVpVNITT14pjEON-13" value="C(150)" style="text;html=1;strokeColor=none;fillColor=none;align=center;verticalAlign=middle;whiteSpace=wrap;rounded=0;shadow=1;labelBackgroundColor=none;fontSize=20;fontColor=#393C56;" vertex="1" parent="1">
          <mxGeometry x="790" y="450" width="40" height="20" as="geometry" />
        </mxCell>
        <mxCell id="eLOIpNVpVNITT14pjEON-14" style="edgeStyle=none;curved=1;html=1;startSize=10;endFill=1;endSize=10;strokeWidth=2;fontSize=12;strokeColor=#E07A5F;fontColor=#393C56;labelBackgroundColor=#F4F1DE;" edge="1" parent="1">
          <mxGeometry relative="1" as="geometry">
            <mxPoint x="800.0000000000259" y="610" as="sourcePoint" />
            <mxPoint x="960.0000000000255" y="610" as="targetPoint" />
          </mxGeometry>
        </mxCell>
        <mxCell id="eLOIpNVpVNITT14pjEON-16" value="E(150)" style="text;html=1;strokeColor=none;fillColor=none;align=center;verticalAlign=middle;whiteSpace=wrap;rounded=0;shadow=1;labelBackgroundColor=none;fontSize=20;fontColor=#393C56;" vertex="1" parent="1">
          <mxGeometry x="877" y="620" width="40" height="20" as="geometry" />
        </mxCell>
        <mxCell id="eLOIpNVpVNITT14pjEON-20" style="edgeStyle=none;curved=1;html=1;startSize=10;endFill=1;endSize=10;strokeWidth=2;fontSize=12;strokeColor=#E07A5F;fontColor=#393C56;labelBackgroundColor=#F4F1DE;" edge="1" parent="1">
          <mxGeometry relative="1" as="geometry">
            <mxPoint x="980.0000000000259" y="440" as="sourcePoint" />
            <mxPoint x="1139.9999999999995" y="440" as="targetPoint" />
          </mxGeometry>
        </mxCell>
        <mxCell id="eLOIpNVpVNITT14pjEON-22" value="F(50)" style="text;html=1;strokeColor=none;fillColor=none;align=center;verticalAlign=middle;whiteSpace=wrap;rounded=0;shadow=1;labelBackgroundColor=none;fontSize=20;fontColor=#393C56;" vertex="1" parent="1">
          <mxGeometry x="1050" y="450" width="40" height="20" as="geometry" />
        </mxCell>
        <mxCell id="eLOIpNVpVNITT14pjEON-24" style="edgeStyle=none;curved=1;html=1;startSize=10;endFill=1;endSize=10;strokeWidth=2;fontSize=12;strokeColor=#E07A5F;fontColor=#393C56;labelBackgroundColor=#F4F1DE;" edge="1" parent="1">
          <mxGeometry relative="1" as="geometry">
            <mxPoint x="1219.9999999999995" y="440" as="sourcePoint" />
            <mxPoint x="1379.9999999999995" y="440" as="targetPoint" />
          </mxGeometry>
        </mxCell>
        <mxCell id="eLOIpNVpVNITT14pjEON-26" value="G(300)" style="text;html=1;strokeColor=none;fillColor=none;align=center;verticalAlign=middle;whiteSpace=wrap;rounded=0;shadow=1;labelBackgroundColor=none;fontSize=20;fontColor=#393C56;" vertex="1" parent="1">
          <mxGeometry x="1300" y="450" width="40" height="20" as="geometry" />
        </mxCell>
        <mxCell id="eLOIpNVpVNITT14pjEON-27" value="" style="endArrow=classic;html=1;dashed=1;strokeColor=#E07A5F;fontColor=#393C56;labelBackgroundColor=#F4F1DE;" edge="1" parent="1">
          <mxGeometry width="50" height="50" relative="1" as="geometry">
            <mxPoint x="1029.0805261020323" y="582.5350586814136" as="sourcePoint" />
            <mxPoint x="1150.9194738979677" y="467.46494131858526" as="targetPoint" />
          </mxGeometry>
        </mxCell>
        <mxCell id="eLOIpNVpVNITT14pjEON-28" value="G&#39;(300)" style="text;html=1;strokeColor=none;fillColor=none;align=center;verticalAlign=middle;whiteSpace=wrap;rounded=0;shadow=1;labelBackgroundColor=none;fontSize=20;fontColor=#393C56;" vertex="1" parent="1">
          <mxGeometry x="1100" y="530" width="40" height="20" as="geometry" />
        </mxCell>
        <mxCell id="eLOIpNVpVNITT14pjEON-29" style="edgeStyle=none;curved=1;html=1;startSize=10;endFill=1;endSize=10;strokeWidth=2;fontSize=12;strokeColor=#E07A5F;fontColor=#393C56;labelBackgroundColor=#F4F1DE;" edge="1" parent="1">
          <mxGeometry relative="1" as="geometry">
            <mxPoint x="1459.9999999999995" y="440" as="sourcePoint" />
            <mxPoint x="1620" y="440" as="targetPoint" />
          </mxGeometry>
        </mxCell>
        <mxCell id="eLOIpNVpVNITT14pjEON-31" value="H(50)" style="text;html=1;strokeColor=none;fillColor=none;align=center;verticalAlign=middle;whiteSpace=wrap;rounded=0;shadow=1;labelBackgroundColor=none;fontSize=20;fontColor=#393C56;" vertex="1" parent="1">
          <mxGeometry x="1540" y="450" width="40" height="20" as="geometry" />
        </mxCell>
        <mxCell id="eLOIpNVpVNITT14pjEON-33" style="edgeStyle=none;curved=1;html=1;startSize=10;endFill=1;endSize=10;strokeWidth=2;fontSize=12;strokeColor=#E07A5F;fontColor=#393C56;labelBackgroundColor=#F4F1DE;" edge="1" parent="1">
          <mxGeometry relative="1" as="geometry">
            <mxPoint x="1700" y="440" as="sourcePoint" />
            <mxPoint x="1860" y="440" as="targetPoint" />
          </mxGeometry>
        </mxCell>
        <mxCell id="eLOIpNVpVNITT14pjEON-35" value="I(5)" style="text;html=1;strokeColor=none;fillColor=none;align=center;verticalAlign=middle;whiteSpace=wrap;rounded=0;shadow=1;labelBackgroundColor=none;fontSize=20;fontColor=#393C56;" vertex="1" parent="1">
          <mxGeometry x="1760" y="450" width="40" height="20" as="geometry" />
        </mxCell>
        <mxCell id="eLOIpNVpVNITT14pjEON-36" style="edgeStyle=none;curved=1;html=1;startSize=10;endFill=1;endSize=10;strokeWidth=2;fontSize=12;strokeColor=#E07A5F;fontColor=#393C56;labelBackgroundColor=#F4F1DE;" edge="1" parent="1">
          <mxGeometry relative="1" as="geometry">
            <mxPoint x="1926.310128230315" y="470.1293403927807" as="sourcePoint" />
            <mxPoint x="2003.6898717696267" y="559.8706596071536" as="targetPoint" />
          </mxGeometry>
        </mxCell>
        <mxCell id="eLOIpNVpVNITT14pjEON-38" value="K(10)" style="text;html=1;strokeColor=none;fillColor=none;align=center;verticalAlign=middle;whiteSpace=wrap;rounded=0;shadow=1;labelBackgroundColor=none;fontSize=20;fontColor=#393C56;" vertex="1" parent="1">
          <mxGeometry x="1930" y="525" width="40" height="20" as="geometry" />
        </mxCell>
        <mxCell id="eLOIpNVpVNITT14pjEON-39" style="edgeStyle=none;curved=1;html=1;startSize=10;endFill=1;endSize=10;strokeWidth=2;fontSize=12;dashed=1;strokeColor=#E07A5F;fontColor=#393C56;labelBackgroundColor=#F4F1DE;" edge="1" parent="1">
          <mxGeometry relative="1" as="geometry">
            <mxPoint x="739.6020626165159" y="774.3717998865418" as="sourcePoint" />
            <mxPoint x="1990.3979373834336" y="595.6282001134655" as="targetPoint" />
          </mxGeometry>
        </mxCell>
        <mxCell id="eLOIpNVpVNITT14pjEON-40" value="" style="verticalLabelPosition=bottom;verticalAlign=top;html=1;shape=mxgraph.flowchart.summing_function;fillColor=#F2CC8F;strokeColor=#E07A5F;fontColor=#393C56;" vertex="1" parent="1">
          <mxGeometry x="90" y="170" width="260" height="260" as="geometry" />
        </mxCell>
        <mxCell id="eLOIpNVpVNITT14pjEON-41" value="K&#39;(10)" style="text;html=1;strokeColor=none;fillColor=none;align=center;verticalAlign=middle;whiteSpace=wrap;rounded=0;shadow=1;labelBackgroundColor=none;fontSize=20;fontColor=#393C56;" vertex="1" parent="1">
          <mxGeometry x="1390" y="690" width="40" height="20" as="geometry" />
        </mxCell>
        <mxCell id="eLOIpNVpVNITT14pjEON-43" value="A" style="text;html=1;strokeColor=none;fillColor=none;align=center;verticalAlign=middle;whiteSpace=wrap;rounded=0;shadow=1;labelBackgroundColor=none;fontSize=20;fontColor=#393C56;" vertex="1" parent="1">
          <mxGeometry x="170" y="595" width="70" height="20" as="geometry" />
        </mxCell>
        <mxCell id="eLOIpNVpVNITT14pjEON-55" value="" style="verticalLabelPosition=bottom;verticalAlign=top;html=1;shape=mxgraph.flowchart.summing_function;fillColor=#F2CC8F;strokeColor=#E07A5F;fontColor=#393C56;" vertex="1" parent="1">
          <mxGeometry x="130" y="545" width="130" height="130" as="geometry" />
        </mxCell>
        <mxCell id="eLOIpNVpVNITT14pjEON-57" value="0" style="text;html=1;strokeColor=none;fillColor=none;align=center;verticalAlign=middle;whiteSpace=wrap;rounded=0;shadow=1;labelBackgroundColor=none;fontSize=20;fontColor=#393C56;" vertex="1" parent="1">
          <mxGeometry x="130" y="585" width="70" height="20" as="geometry" />
        </mxCell>
        <mxCell id="eLOIpNVpVNITT14pjEON-58" value="0" style="text;html=1;strokeColor=none;fillColor=none;align=center;verticalAlign=middle;whiteSpace=wrap;rounded=0;shadow=1;labelBackgroundColor=none;fontSize=20;fontColor=#393C56;" vertex="1" parent="1">
          <mxGeometry x="190" y="585" width="70" height="20" as="geometry" />
        </mxCell>
        <mxCell id="eLOIpNVpVNITT14pjEON-59" value="0" style="text;html=1;strokeColor=none;fillColor=none;align=center;verticalAlign=middle;whiteSpace=wrap;rounded=0;shadow=1;labelBackgroundColor=none;fontSize=20;fontColor=#393C56;" vertex="1" parent="1">
          <mxGeometry x="130" y="625" width="70" height="20" as="geometry" />
        </mxCell>
        <mxCell id="eLOIpNVpVNITT14pjEON-60" value="Date au plus tôt" style="text;html=1;strokeColor=none;fillColor=none;align=center;verticalAlign=middle;whiteSpace=wrap;rounded=0;shadow=1;labelBackgroundColor=none;fontSize=20;fontColor=#393C56;" vertex="1" parent="1">
          <mxGeometry x="110" y="240" width="100" height="20" as="geometry" />
        </mxCell>
        <mxCell id="eLOIpNVpVNITT14pjEON-61" value="Date au plus tard" style="text;html=1;strokeColor=none;fillColor=none;align=center;verticalAlign=middle;whiteSpace=wrap;rounded=0;shadow=1;labelBackgroundColor=none;fontSize=20;fontColor=#393C56;" vertex="1" parent="1">
          <mxGeometry x="220" y="240" width="100" height="20" as="geometry" />
        </mxCell>
        <mxCell id="eLOIpNVpVNITT14pjEON-62" value="Marge" style="text;html=1;strokeColor=none;fillColor=none;align=center;verticalAlign=middle;whiteSpace=wrap;rounded=0;shadow=1;labelBackgroundColor=none;fontSize=20;fontColor=#393C56;" vertex="1" parent="1">
          <mxGeometry x="110" y="340" width="100" height="20" as="geometry" />
        </mxCell>
        <mxCell id="eLOIpNVpVNITT14pjEON-65" value="A" style="text;html=1;strokeColor=none;fillColor=none;align=center;verticalAlign=middle;whiteSpace=wrap;rounded=0;shadow=1;labelBackgroundColor=none;fontSize=20;fontColor=#393C56;" vertex="1" parent="1">
          <mxGeometry x="450" y="590" width="70" height="20" as="geometry" />
        </mxCell>
        <mxCell id="eLOIpNVpVNITT14pjEON-66" value="" style="verticalLabelPosition=bottom;verticalAlign=top;html=1;shape=mxgraph.flowchart.summing_function;fillColor=#F2CC8F;strokeColor=#E07A5F;fontColor=#393C56;" vertex="1" parent="1">
          <mxGeometry x="410" y="540" width="130" height="130" as="geometry" />
        </mxCell>
        <mxCell id="eLOIpNVpVNITT14pjEON-67" value="150" style="text;html=1;strokeColor=none;fillColor=none;align=center;verticalAlign=middle;whiteSpace=wrap;rounded=0;shadow=1;labelBackgroundColor=none;fontSize=20;fontColor=#393C56;" vertex="1" parent="1">
          <mxGeometry x="410" y="580" width="70" height="20" as="geometry" />
        </mxCell>
        <mxCell id="eLOIpNVpVNITT14pjEON-68" value="150" style="text;html=1;strokeColor=none;fillColor=none;align=center;verticalAlign=middle;whiteSpace=wrap;rounded=0;shadow=1;labelBackgroundColor=none;fontSize=20;fontColor=#393C56;" vertex="1" parent="1">
          <mxGeometry x="470" y="580" width="70" height="20" as="geometry" />
        </mxCell>
        <mxCell id="eLOIpNVpVNITT14pjEON-69" value="0" style="text;html=1;strokeColor=none;fillColor=none;align=center;verticalAlign=middle;whiteSpace=wrap;rounded=0;shadow=1;labelBackgroundColor=none;fontSize=20;fontColor=#393C56;" vertex="1" parent="1">
          <mxGeometry x="410" y="620" width="70" height="20" as="geometry" />
        </mxCell>
        <mxCell id="eLOIpNVpVNITT14pjEON-75" value="A" style="text;html=1;strokeColor=none;fillColor=none;align=center;verticalAlign=middle;whiteSpace=wrap;rounded=0;shadow=1;labelBackgroundColor=none;fontSize=20;fontColor=#393C56;" vertex="1" parent="1">
          <mxGeometry x="680" y="425" width="70" height="20" as="geometry" />
        </mxCell>
        <mxCell id="eLOIpNVpVNITT14pjEON-76" value="" style="verticalLabelPosition=bottom;verticalAlign=top;html=1;shape=mxgraph.flowchart.summing_function;fillColor=#F2CC8F;strokeColor=#E07A5F;fontColor=#393C56;" vertex="1" parent="1">
          <mxGeometry x="640" y="375" width="130" height="130" as="geometry" />
        </mxCell>
        <mxCell id="eLOIpNVpVNITT14pjEON-77" value="600" style="text;html=1;strokeColor=none;fillColor=none;align=center;verticalAlign=middle;whiteSpace=wrap;rounded=0;shadow=1;labelBackgroundColor=none;fontSize=20;fontColor=#393C56;" vertex="1" parent="1">
          <mxGeometry x="640" y="415" width="70" height="20" as="geometry" />
        </mxCell>
        <mxCell id="eLOIpNVpVNITT14pjEON-78" value="600" style="text;html=1;strokeColor=none;fillColor=none;align=center;verticalAlign=middle;whiteSpace=wrap;rounded=0;shadow=1;labelBackgroundColor=none;fontSize=20;fontColor=#393C56;" vertex="1" parent="1">
          <mxGeometry x="700" y="415" width="70" height="20" as="geometry" />
        </mxCell>
        <mxCell id="eLOIpNVpVNITT14pjEON-79" value="0" style="text;html=1;strokeColor=none;fillColor=none;align=center;verticalAlign=middle;whiteSpace=wrap;rounded=0;shadow=1;labelBackgroundColor=none;fontSize=20;fontColor=#393C56;" vertex="1" parent="1">
          <mxGeometry x="640" y="455" width="70" height="20" as="geometry" />
        </mxCell>
        <mxCell id="eLOIpNVpVNITT14pjEON-80" value="A" style="text;html=1;strokeColor=none;fillColor=none;align=center;verticalAlign=middle;whiteSpace=wrap;rounded=0;shadow=1;labelBackgroundColor=none;fontSize=20;fontColor=#393C56;" vertex="1" parent="1">
          <mxGeometry x="760" y="595" width="70" height="20" as="geometry" />
        </mxCell>
        <mxCell id="eLOIpNVpVNITT14pjEON-81" value="" style="verticalLabelPosition=bottom;verticalAlign=top;html=1;shape=mxgraph.flowchart.summing_function;fillColor=#F2CC8F;strokeColor=#E07A5F;fontColor=#393C56;" vertex="1" parent="1">
          <mxGeometry x="720" y="545" width="130" height="130" as="geometry" />
        </mxCell>
        <mxCell id="eLOIpNVpVNITT14pjEON-82" value="200" style="text;html=1;strokeColor=none;fillColor=none;align=center;verticalAlign=middle;whiteSpace=wrap;rounded=0;shadow=1;labelBackgroundColor=none;fontSize=20;fontColor=#393C56;" vertex="1" parent="1">
          <mxGeometry x="720" y="585" width="70" height="20" as="geometry" />
        </mxCell>
        <mxCell id="eLOIpNVpVNITT14pjEON-83" value="0" style="text;html=1;strokeColor=none;fillColor=none;align=center;verticalAlign=middle;whiteSpace=wrap;rounded=0;shadow=1;labelBackgroundColor=none;fontSize=20;fontColor=#393C56;" vertex="1" parent="1">
          <mxGeometry x="780" y="585" width="70" height="20" as="geometry" />
        </mxCell>
        <mxCell id="eLOIpNVpVNITT14pjEON-84" value="0" style="text;html=1;strokeColor=none;fillColor=none;align=center;verticalAlign=middle;whiteSpace=wrap;rounded=0;shadow=1;labelBackgroundColor=none;fontSize=20;fontColor=#393C56;" vertex="1" parent="1">
          <mxGeometry x="720" y="625" width="70" height="20" as="geometry" />
        </mxCell>
        <mxCell id="eLOIpNVpVNITT14pjEON-85" value="A" style="text;html=1;strokeColor=none;fillColor=none;align=center;verticalAlign=middle;whiteSpace=wrap;rounded=0;shadow=1;labelBackgroundColor=none;fontSize=20;fontColor=#393C56;" vertex="1" parent="1">
          <mxGeometry x="710" y="750" width="70" height="20" as="geometry" />
        </mxCell>
        <mxCell id="eLOIpNVpVNITT14pjEON-86" value="" style="verticalLabelPosition=bottom;verticalAlign=top;html=1;shape=mxgraph.flowchart.summing_function;fillColor=#F2CC8F;strokeColor=#E07A5F;fontColor=#393C56;" vertex="1" parent="1">
          <mxGeometry x="670" y="700" width="130" height="130" as="geometry" />
        </mxCell>
        <mxCell id="eLOIpNVpVNITT14pjEON-87" value="200" style="text;html=1;strokeColor=none;fillColor=none;align=center;verticalAlign=middle;whiteSpace=wrap;rounded=0;shadow=1;labelBackgroundColor=none;fontSize=20;fontColor=#393C56;" vertex="1" parent="1">
          <mxGeometry x="670" y="740" width="70" height="20" as="geometry" />
        </mxCell>
        <mxCell id="eLOIpNVpVNITT14pjEON-88" value="1155" style="text;html=1;strokeColor=none;fillColor=none;align=center;verticalAlign=middle;whiteSpace=wrap;rounded=0;shadow=1;labelBackgroundColor=none;fontSize=20;fontColor=#393C56;" vertex="1" parent="1">
          <mxGeometry x="730" y="740" width="70" height="20" as="geometry" />
        </mxCell>
        <mxCell id="eLOIpNVpVNITT14pjEON-89" value="955" style="text;html=1;strokeColor=none;fillColor=none;align=center;verticalAlign=middle;whiteSpace=wrap;rounded=0;shadow=1;labelBackgroundColor=none;fontSize=20;fontColor=#393C56;" vertex="1" parent="1">
          <mxGeometry x="670" y="780" width="70" height="20" as="geometry" />
        </mxCell>
        <mxCell id="eLOIpNVpVNITT14pjEON-90" value="A" style="text;html=1;strokeColor=none;fillColor=none;align=center;verticalAlign=middle;whiteSpace=wrap;rounded=0;shadow=1;labelBackgroundColor=none;fontSize=20;fontColor=#393C56;" vertex="1" parent="1">
          <mxGeometry x="1000" y="595" width="70" height="20" as="geometry" />
        </mxCell>
        <mxCell id="eLOIpNVpVNITT14pjEON-91" value="" style="verticalLabelPosition=bottom;verticalAlign=top;html=1;shape=mxgraph.flowchart.summing_function;fillColor=#F2CC8F;strokeColor=#E07A5F;fontColor=#393C56;" vertex="1" parent="1">
          <mxGeometry x="960" y="545" width="130" height="130" as="geometry" />
        </mxCell>
        <mxCell id="eLOIpNVpVNITT14pjEON-92" value="350" style="text;html=1;strokeColor=none;fillColor=none;align=center;verticalAlign=middle;whiteSpace=wrap;rounded=0;shadow=1;labelBackgroundColor=none;fontSize=20;fontColor=#393C56;" vertex="1" parent="1">
          <mxGeometry x="960" y="585" width="70" height="20" as="geometry" />
        </mxCell>
        <mxCell id="eLOIpNVpVNITT14pjEON-93" value="500" style="text;html=1;strokeColor=none;fillColor=none;align=center;verticalAlign=middle;whiteSpace=wrap;rounded=0;shadow=1;labelBackgroundColor=none;fontSize=20;fontColor=#393C56;" vertex="1" parent="1">
          <mxGeometry x="1020" y="585" width="70" height="20" as="geometry" />
        </mxCell>
        <mxCell id="eLOIpNVpVNITT14pjEON-94" value="150" style="text;html=1;strokeColor=none;fillColor=none;align=center;verticalAlign=middle;whiteSpace=wrap;rounded=0;shadow=1;labelBackgroundColor=none;fontSize=20;fontColor=#393C56;" vertex="1" parent="1">
          <mxGeometry x="960" y="625" width="70" height="20" as="geometry" />
        </mxCell>
        <mxCell id="eLOIpNVpVNITT14pjEON-95" value="A" style="text;html=1;strokeColor=none;fillColor=none;align=center;verticalAlign=middle;whiteSpace=wrap;rounded=0;shadow=1;labelBackgroundColor=none;fontSize=20;fontColor=#393C56;" vertex="1" parent="1">
          <mxGeometry x="940" y="425" width="70" height="20" as="geometry" />
        </mxCell>
        <mxCell id="eLOIpNVpVNITT14pjEON-96" value="" style="verticalLabelPosition=bottom;verticalAlign=top;html=1;shape=mxgraph.flowchart.summing_function;fillColor=#F2CC8F;strokeColor=#E07A5F;fontColor=#393C56;" vertex="1" parent="1">
          <mxGeometry x="900" y="375" width="130" height="130" as="geometry" />
        </mxCell>
        <mxCell id="eLOIpNVpVNITT14pjEON-97" value="750" style="text;html=1;strokeColor=none;fillColor=none;align=center;verticalAlign=middle;whiteSpace=wrap;rounded=0;shadow=1;labelBackgroundColor=none;fontSize=20;fontColor=#393C56;" vertex="1" parent="1">
          <mxGeometry x="900" y="415" width="70" height="20" as="geometry" />
        </mxCell>
        <mxCell id="eLOIpNVpVNITT14pjEON-98" value="750" style="text;html=1;strokeColor=none;fillColor=none;align=center;verticalAlign=middle;whiteSpace=wrap;rounded=0;shadow=1;labelBackgroundColor=none;fontSize=20;fontColor=#393C56;" vertex="1" parent="1">
          <mxGeometry x="960" y="415" width="70" height="20" as="geometry" />
        </mxCell>
        <mxCell id="eLOIpNVpVNITT14pjEON-99" value="0" style="text;html=1;strokeColor=none;fillColor=none;align=center;verticalAlign=middle;whiteSpace=wrap;rounded=0;shadow=1;labelBackgroundColor=none;fontSize=20;fontColor=#393C56;" vertex="1" parent="1">
          <mxGeometry x="900" y="455" width="70" height="20" as="geometry" />
        </mxCell>
        <mxCell id="eLOIpNVpVNITT14pjEON-100" value="A" style="text;html=1;strokeColor=none;fillColor=none;align=center;verticalAlign=middle;whiteSpace=wrap;rounded=0;shadow=1;labelBackgroundColor=none;fontSize=20;fontColor=#393C56;" vertex="1" parent="1">
          <mxGeometry x="1180" y="425" width="70" height="20" as="geometry" />
        </mxCell>
        <mxCell id="eLOIpNVpVNITT14pjEON-101" value="" style="verticalLabelPosition=bottom;verticalAlign=top;html=1;shape=mxgraph.flowchart.summing_function;fillColor=#F2CC8F;strokeColor=#E07A5F;fontColor=#393C56;" vertex="1" parent="1">
          <mxGeometry x="1140" y="375" width="130" height="130" as="geometry" />
        </mxCell>
        <mxCell id="eLOIpNVpVNITT14pjEON-102" value="800" style="text;html=1;strokeColor=none;fillColor=none;align=center;verticalAlign=middle;whiteSpace=wrap;rounded=0;shadow=1;labelBackgroundColor=none;fontSize=20;fontColor=#393C56;" vertex="1" parent="1">
          <mxGeometry x="1140" y="415" width="70" height="20" as="geometry" />
        </mxCell>
        <mxCell id="eLOIpNVpVNITT14pjEON-103" value="800" style="text;html=1;strokeColor=none;fillColor=none;align=center;verticalAlign=middle;whiteSpace=wrap;rounded=0;shadow=1;labelBackgroundColor=none;fontSize=20;fontColor=#393C56;" vertex="1" parent="1">
          <mxGeometry x="1200" y="415" width="70" height="20" as="geometry" />
        </mxCell>
        <mxCell id="eLOIpNVpVNITT14pjEON-104" value="0" style="text;html=1;strokeColor=none;fillColor=none;align=center;verticalAlign=middle;whiteSpace=wrap;rounded=0;shadow=1;labelBackgroundColor=none;fontSize=20;fontColor=#393C56;" vertex="1" parent="1">
          <mxGeometry x="1140" y="455" width="70" height="20" as="geometry" />
        </mxCell>
        <mxCell id="eLOIpNVpVNITT14pjEON-105" value="A" style="text;html=1;strokeColor=none;fillColor=none;align=center;verticalAlign=middle;whiteSpace=wrap;rounded=0;shadow=1;labelBackgroundColor=none;fontSize=20;fontColor=#393C56;" vertex="1" parent="1">
          <mxGeometry x="1420" y="425" width="70" height="20" as="geometry" />
        </mxCell>
        <mxCell id="eLOIpNVpVNITT14pjEON-106" value="" style="verticalLabelPosition=bottom;verticalAlign=top;html=1;shape=mxgraph.flowchart.summing_function;fillColor=#F2CC8F;strokeColor=#E07A5F;fontColor=#393C56;" vertex="1" parent="1">
          <mxGeometry x="1380" y="375" width="130" height="130" as="geometry" />
        </mxCell>
        <mxCell id="eLOIpNVpVNITT14pjEON-107" value="1100" style="text;html=1;strokeColor=none;fillColor=none;align=center;verticalAlign=middle;whiteSpace=wrap;rounded=0;shadow=1;labelBackgroundColor=none;fontSize=20;fontColor=#393C56;" vertex="1" parent="1">
          <mxGeometry x="1380" y="415" width="70" height="20" as="geometry" />
        </mxCell>
        <mxCell id="eLOIpNVpVNITT14pjEON-108" value="1100" style="text;html=1;strokeColor=none;fillColor=none;align=center;verticalAlign=middle;whiteSpace=wrap;rounded=0;shadow=1;labelBackgroundColor=none;fontSize=20;fontColor=#393C56;" vertex="1" parent="1">
          <mxGeometry x="1440" y="415" width="70" height="20" as="geometry" />
        </mxCell>
        <mxCell id="eLOIpNVpVNITT14pjEON-109" value="0" style="text;html=1;strokeColor=none;fillColor=none;align=center;verticalAlign=middle;whiteSpace=wrap;rounded=0;shadow=1;labelBackgroundColor=none;fontSize=20;fontColor=#393C56;" vertex="1" parent="1">
          <mxGeometry x="1380" y="455" width="70" height="20" as="geometry" />
        </mxCell>
        <mxCell id="eLOIpNVpVNITT14pjEON-110" value="A" style="text;html=1;strokeColor=none;fillColor=none;align=center;verticalAlign=middle;whiteSpace=wrap;rounded=0;shadow=1;labelBackgroundColor=none;fontSize=20;fontColor=#393C56;" vertex="1" parent="1">
          <mxGeometry x="1660" y="425" width="70" height="20" as="geometry" />
        </mxCell>
        <mxCell id="eLOIpNVpVNITT14pjEON-111" value="" style="verticalLabelPosition=bottom;verticalAlign=top;html=1;shape=mxgraph.flowchart.summing_function;fillColor=#F2CC8F;strokeColor=#E07A5F;fontColor=#393C56;" vertex="1" parent="1">
          <mxGeometry x="1620" y="375" width="130" height="130" as="geometry" />
        </mxCell>
        <mxCell id="eLOIpNVpVNITT14pjEON-112" value="1150" style="text;html=1;strokeColor=none;fillColor=none;align=center;verticalAlign=middle;whiteSpace=wrap;rounded=0;shadow=1;labelBackgroundColor=none;fontSize=20;fontColor=#393C56;" vertex="1" parent="1">
          <mxGeometry x="1620" y="415" width="70" height="20" as="geometry" />
        </mxCell>
        <mxCell id="eLOIpNVpVNITT14pjEON-113" value="1150" style="text;html=1;strokeColor=none;fillColor=none;align=center;verticalAlign=middle;whiteSpace=wrap;rounded=0;shadow=1;labelBackgroundColor=none;fontSize=20;fontColor=#393C56;" vertex="1" parent="1">
          <mxGeometry x="1680" y="415" width="70" height="20" as="geometry" />
        </mxCell>
        <mxCell id="eLOIpNVpVNITT14pjEON-114" value="0" style="text;html=1;strokeColor=none;fillColor=none;align=center;verticalAlign=middle;whiteSpace=wrap;rounded=0;shadow=1;labelBackgroundColor=none;fontSize=20;fontColor=#393C56;" vertex="1" parent="1">
          <mxGeometry x="1620" y="455" width="70" height="20" as="geometry" />
        </mxCell>
        <mxCell id="eLOIpNVpVNITT14pjEON-115" value="A" style="text;html=1;strokeColor=none;fillColor=none;align=center;verticalAlign=middle;whiteSpace=wrap;rounded=0;shadow=1;labelBackgroundColor=none;fontSize=20;fontColor=#393C56;" vertex="1" parent="1">
          <mxGeometry x="1900" y="425" width="70" height="20" as="geometry" />
        </mxCell>
        <mxCell id="eLOIpNVpVNITT14pjEON-116" value="" style="verticalLabelPosition=bottom;verticalAlign=top;html=1;shape=mxgraph.flowchart.summing_function;fillColor=#F2CC8F;strokeColor=#E07A5F;fontColor=#393C56;" vertex="1" parent="1">
          <mxGeometry x="1860" y="375" width="130" height="130" as="geometry" />
        </mxCell>
        <mxCell id="eLOIpNVpVNITT14pjEON-117" value="1155" style="text;html=1;strokeColor=none;fillColor=none;align=center;verticalAlign=middle;whiteSpace=wrap;rounded=0;shadow=1;labelBackgroundColor=none;fontSize=20;fontColor=#393C56;" vertex="1" parent="1">
          <mxGeometry x="1860" y="415" width="70" height="20" as="geometry" />
        </mxCell>
        <mxCell id="eLOIpNVpVNITT14pjEON-118" value="1155" style="text;html=1;strokeColor=none;fillColor=none;align=center;verticalAlign=middle;whiteSpace=wrap;rounded=0;shadow=1;labelBackgroundColor=none;fontSize=20;fontColor=#393C56;" vertex="1" parent="1">
          <mxGeometry x="1920" y="415" width="70" height="20" as="geometry" />
        </mxCell>
        <mxCell id="eLOIpNVpVNITT14pjEON-119" value="0" style="text;html=1;strokeColor=none;fillColor=none;align=center;verticalAlign=middle;whiteSpace=wrap;rounded=0;shadow=1;labelBackgroundColor=none;fontSize=20;fontColor=#393C56;" vertex="1" parent="1">
          <mxGeometry x="1860" y="455" width="70" height="20" as="geometry" />
        </mxCell>
        <mxCell id="eLOIpNVpVNITT14pjEON-120" value="A" style="text;html=1;strokeColor=none;fillColor=none;align=center;verticalAlign=middle;whiteSpace=wrap;rounded=0;shadow=1;labelBackgroundColor=none;fontSize=20;fontColor=#393C56;" vertex="1" parent="1">
          <mxGeometry x="2030" y="580" width="70" height="20" as="geometry" />
        </mxCell>
        <mxCell id="eLOIpNVpVNITT14pjEON-121" value="" style="verticalLabelPosition=bottom;verticalAlign=top;html=1;shape=mxgraph.flowchart.summing_function;fillColor=#F2CC8F;strokeColor=#E07A5F;fontColor=#393C56;" vertex="1" parent="1">
          <mxGeometry x="1990" y="530" width="130" height="130" as="geometry" />
        </mxCell>
        <mxCell id="eLOIpNVpVNITT14pjEON-122" value="1165" style="text;html=1;strokeColor=none;fillColor=none;align=center;verticalAlign=middle;whiteSpace=wrap;rounded=0;shadow=1;labelBackgroundColor=none;fontSize=20;fontColor=#393C56;" vertex="1" parent="1">
          <mxGeometry x="1990" y="570" width="70" height="20" as="geometry" />
        </mxCell>
        <mxCell id="eLOIpNVpVNITT14pjEON-123" value="1165" style="text;html=1;strokeColor=none;fillColor=none;align=center;verticalAlign=middle;whiteSpace=wrap;rounded=0;shadow=1;labelBackgroundColor=none;fontSize=20;fontColor=#393C56;" vertex="1" parent="1">
          <mxGeometry x="2050" y="570" width="70" height="20" as="geometry" />
        </mxCell>
        <mxCell id="eLOIpNVpVNITT14pjEON-124" value="0" style="text;html=1;strokeColor=none;fillColor=none;align=center;verticalAlign=middle;whiteSpace=wrap;rounded=0;shadow=1;labelBackgroundColor=none;fontSize=20;fontColor=#393C56;" vertex="1" parent="1">
          <mxGeometry x="1990" y="610" width="70" height="20" as="geometry" />
        </mxCell>
      </root>
    </mxGraphModel>
  </diagram>
</mxfile>
